<svg xmlns="http://www.w3.org/2000/svg" viewBox="0 0 1925 1084"><defs><style>.cls-1{isolation:isolate;}.cls-2{fill:#e6e6e6;}.cls-2,.cls-5,.cls-6{stroke:#000;}.cls-2,.cls-4,.cls-5,.cls-6,.cls-9{stroke-miterlimit:10;}.cls-2,.cls-5,.cls-6,.cls-9{stroke-width:4px;}.cls-3{mix-blend-mode:screen;opacity:0.8;}.cls-4{fill:#1f2c2d;stroke:#fff;stroke-width:3px;}.cls-5,.cls-9{fill:none;}.cls-5{stroke-linecap:round;}.cls-6,.cls-7{fill:#ca3a36;}.cls-7{mix-blend-mode:multiply;}.cls-8{fill:#6d6d6d;}.cls-9{stroke:#6d6d6d;}</style></defs><g class="cls-1"><g id="bg_border" data-name="bg + border"><path class="cls-2" d="M0,0V1080H1921V0ZM1862.9,111.67l-42.81,43.62V355.55l42.81,42.81V681.71l-42.74,42.74V924.71l42.74,43.82v53.87H1312.53l-58-58h-588l-58,58H58.1V968.71l42.94-44V724.45l-42.94-43V398.56l43-43V155.29l-43-43.83V57.6H613.68L667,110.92h588.05l53.33-53.32H1862.9Z" transform="translate(2 2)"/><g class="cls-3"><path class="cls-4" d="M621,964.5l-41.36,41.36H77.11l42.35-42.34S579.46,966,621,964.5Z" transform="translate(2 2)"/><path class="cls-4" d="M1303.48,964.5l41.36,41.36h502.53L1805,963.52S1345,966,1303.48,964.5Z" transform="translate(2 2)"/><path class="cls-4" d="M621,111.47,579.64,70.11H77.11l42.35,42.35S579.46,110,621,111.47Z" transform="translate(2 2)"/><path class="cls-4" d="M1303.48,111.47l41.36-41.36h502.53L1805,112.46S1345,110,1303.48,111.47Z" transform="translate(2 2)"/></g><line class="cls-5" x1="1331.09" y1="38.89" x2="1310.38" y2="59.6"/><line class="cls-5" x1="615.68" y1="59.6" x2="595.06" y2="38.98"/><line class="cls-5" x1="610.57" y1="1024.4" x2="594.49" y2="1040.48"/><line class="cls-5" x1="1330.51" y1="1040.38" x2="1314.53" y2="1024.4"/><line class="cls-5" x1="60.1" y1="113.46" x2="44.44" y2="97.16"/><line class="cls-5" x1="60.1" y1="400.56" x2="43.6" y2="417.06"/><line class="cls-5" x1="60.1" y1="970.71" x2="43.99" y2="987.22"/><line class="cls-5" x1="60.1" y1="683.5" x2="43.76" y2="667.16"/><line class="cls-5" x1="1880.41" y1="97.52" x2="1864.9" y2="113.67"/><line class="cls-5" x1="1879.58" y1="415.04" x2="1864.9" y2="400.36"/><line class="cls-5" x1="1879.79" y1="985.8" x2="1864.9" y2="970.53"/><line class="cls-5" x1="1879.5" y1="669.11" x2="1864.9" y2="683.71"/><polygon class="cls-6" points="102.93 630.99 102.88 704.55 70.76 672.3 70.76 598.82 102.93 630.99"/><polygon class="cls-6" points="103.01 519.17 102.96 595.66 70.76 563.46 70.76 486.92 103.01 519.17"/><polygon class="cls-6" points="103.11 379.45 103.04 483.84 70.76 451.56 70.76 410.53 103.11 379.45"/><polygon class="cls-6" points="1822.27 630.99 1822.32 704.55 1854.44 672.3 1854.44 598.82 1822.27 630.99"/><polygon class="cls-6" points="1822.19 519.17 1822.24 595.66 1854.44 563.46 1854.44 486.92 1822.19 519.17"/><polygon class="cls-6" points="1822.09 379.45 1822.16 483.84 1854.44 451.56 1854.44 410.53 1822.09 379.45"/><polygon class="cls-6" points="804.52 82.69 684.26 82.69 652.09 50.52 640.79 39.22 761.06 39.22 772.36 50.52 804.52 82.69"/><polygon class="cls-6" points="1141.08 39.22 1097.61 82.69 832.81 82.69 800.64 50.52 789.34 39.22 1141.08 39.22"/><polygon class="cls-6" points="1289.63 39.22 1246.16 82.69 1125.9 82.69 1158.06 50.52 1169.36 39.22 1289.63 39.22"/><path d="M920.26,1005.37a4.64,4.64,0,0,0-2.4-1.86,10.09,10.09,0,0,0-3.54-.55c-6.29,0-16.19,3.68-26.34,10a78.78,78.78,0,0,0-15.51,12.38c-3.79,4.08-6.09,7.81-6.13,10.89a4.44,4.44,0,0,0,.65,2.4,4.65,4.65,0,0,0,2.39,1.85,10,10,0,0,0,3.43.55,4,4,0,0,1-.18-1.16,3.15,3.15,0,0,1,0-.44,8.22,8.22,0,0,1-2.72-.44,3.06,3.06,0,0,1-1.6-1.21,2.9,2.9,0,0,1-.4-1.55c0-2.24,2-5.88,5.7-9.8a76.81,76.81,0,0,1,15.19-12.11c9.95-6.23,19.78-9.77,25.49-9.75a8.6,8.6,0,0,1,3,.44,3.12,3.12,0,0,1,1.6,1.21,2.92,2.92,0,0,1,.41,1.56c0,2.23-2,5.87-5.71,9.79a77,77,0,0,1-15.18,12.11,74.86,74.86,0,0,1-18.51,8.6,3.9,3.9,0,0,1,.34,1.56,76.44,76.44,0,0,0,19-8.8,78.78,78.78,0,0,0,15.51-12.38c3.79-4.08,6.1-7.8,6.13-10.88A4.5,4.5,0,0,0,920.26,1005.37Z" transform="translate(2 2)"/><path d="M874.46,1039.86a2,2,0,0,0,2,2h0a2,2,0,0,0,2-2h0a2,2,0,0,0-2-2h0a2,2,0,0,0-2,2Z" transform="translate(2 2)"/><path d="M919.27,1032.47a4,4,0,0,1-1.36.87,8.33,8.33,0,0,1,1,3.49,3,3,0,0,1-.45,1.66c-.61.94-2,1.53-4.25,1.53-5.63,0-15.59-3.82-25.58-10.49a77.5,77.5,0,0,1-14.74-12.43c-3.58-4-5.55-7.68-5.51-10a2.87,2.87,0,0,1,.45-1.66c.61-.94,2-1.53,4.24-1.53,5.63,0,15.59,3.83,25.59,10.49a77.06,77.06,0,0,1,14.73,12.44c.12.12.23.25.34.38a3.82,3.82,0,0,1,1.28-1l-.42-.49a79.21,79.21,0,0,0-15.05-12.7c-10.2-6.76-20.2-10.73-26.47-10.76-2.45,0-4.48.63-5.57,2.25a4.48,4.48,0,0,0-.72,2.54c0,3.08,2.25,6.85,5.92,11a79.12,79.12,0,0,0,15,12.7c10.2,6.76,20.21,10.74,26.47,10.76,2.46,0,4.49-.63,5.58-2.25a4.45,4.45,0,0,0,.71-2.54A10.14,10.14,0,0,0,919.27,1032.47Z" transform="translate(2 2)"/><path d="M901.35,1000.11a23.17,23.17,0,0,0-3.26-6.8c-1.25-1.64-2.75-2.71-4.47-2.72s-3.22,1.08-4.47,2.72c-.19.26-.39.54-.57.83a3.8,3.8,0,0,1,1.45.68l.39-.54c1.11-1.45,2.2-2.1,3.2-2.09s2.1.64,3.2,2.09c1.65,2.16,3.15,6,4.19,10.77a81.22,81.22,0,0,1,1.67,16.94,72.78,72.78,0,0,1-2.85,21.39,21.29,21.29,0,0,1-3,6.32c-1.1,1.45-2.2,2.1-3.2,2.09s-2.09-.64-3.2-2.09c-1.65-2.15-3.15-6-4.19-10.77a81.2,81.2,0,0,1-1.66-16.94,75.4,75.4,0,0,1,2.53-20.38,3.73,3.73,0,0,1-1.49-.59c-.34,1.16-.65,2.39-.94,3.69A82.62,82.62,0,0,0,883,1022a74.5,74.5,0,0,0,2.92,21.88,23.3,23.3,0,0,0,3.26,6.8c1.25,1.65,2.75,2.71,4.47,2.72s3.22-1.07,4.47-2.72c1.89-2.49,3.4-6.45,4.48-11.4a82.62,82.62,0,0,0,1.7-17.28A74.21,74.21,0,0,0,901.35,1000.11Z" transform="translate(2 2)"/><path d="M885.74,997.86a2,2,0,0,0,2,2h0a2,2,0,0,0,2-2h0a2,2,0,0,0-2-2h0a2,2,0,0,0-2,2Z" transform="translate(2 2)"/><path d="M930.93,1013.26h-1.3v1.94h-.74V1010H931a1.5,1.5,0,0,1,1.61,1.63A1.51,1.51,0,0,1,930.93,1013.26Zm0-2.51h-1.34v1.78H931a.79.79,0,0,0,.86-.89A.81.81,0,0,0,931,1010.75Z" transform="translate(2 2)"/><path d="M936.26,1013.08l1,2.12h-.86l-1-2.05h-1.13v2.05h-.73V1010h2.19a1.47,1.47,0,0,1,1.61,1.55A1.43,1.43,0,0,1,936.26,1013.08Zm-.51-2.33h-1.46v1.66h1.46a.76.76,0,0,0,.85-.83A.77.77,0,0,0,935.75,1010.75Z" transform="translate(2 2)"/><path d="M940.28,1015.28c-1.27,0-2.13-1-2.13-2.67s.88-2.68,2.14-2.68,2.13,1.05,2.13,2.67S941.55,1015.28,940.28,1015.28Zm0-4.58c-.79,0-1.35.72-1.35,1.9s.58,1.91,1.38,1.91,1.36-.72,1.36-1.9S941.07,1010.7,940.27,1010.7Z" transform="translate(2 2)"/><path d="M944.75,1015.28a1.7,1.7,0,0,1-1.75-1.38l.73-.22a1,1,0,0,0,1,.82c.72,0,1-.42,1-1.41V1010h.75v3.14C946.53,1014.55,946,1015.28,944.75,1015.28Z" transform="translate(2 2)"/><path d="M947.79,1015.2V1010H951v.76h-2.48v1.28H950v.76h-1.44v1.63h2.58v.76Z" transform="translate(2 2)"/><path d="M953.83,1015.28c-1.29,0-2.11-1.1-2.11-2.67s.82-2.68,2.11-2.68a1.77,1.77,0,0,1,1.7,1l-.66.43a1.08,1.08,0,0,0-1-.62c-.87,0-1.34.73-1.34,1.9s.47,1.89,1.34,1.89a1.18,1.18,0,0,0,1.1-.64l.63.43A1.92,1.92,0,0,1,953.83,1015.28Z" transform="translate(2 2)"/><path d="M958.43,1010.78v4.42h-.75v-4.42h-1.46V1010h3.67v.77Z" transform="translate(2 2)"/><path d="M962.8,1015.2V1010h.76v4.42h2.49v.77Z" transform="translate(2 2)"/><path d="M967.06,1015.2V1010h3.22v.76h-2.47v1.28h1.44v.76h-1.44v1.63h2.58v.76Z" transform="translate(2 2)"/><path d="M974.76,1015.2l-.42-1.23h-2l-.42,1.23h-.78l1.8-5.19h.8l1.82,5.19Zm-1-3.12c-.12-.37-.32-1-.38-1.19-.06.22-.24.81-.37,1.2l-.4,1.18h1.55Z" transform="translate(2 2)"/><path d="M977.91,1015.2h-1.36V1010h1.36a2.6,2.6,0,0,1,0,5.19Zm0-4.43h-.61v3.67h.61c1.19,0,1.67-.75,1.67-1.83S979.1,1010.77,977.91,1010.77Z" transform="translate(2 2)"/><path d="M985.22,1010.78v4.42h-.75v-4.42H983V1010h3.66v.77Z" transform="translate(2 2)"/><path d="M990.72,1015.2v-2.31h-2.3v2.31h-.75V1010h.75v2.1h2.3V1010h.75v5.19Z" transform="translate(2 2)"/><path d="M992.77,1015.2V1010H996v.76h-2.47v1.28H995v.76h-1.43v1.63h2.58v.76Z" transform="translate(2 2)"/><path d="M1003.24,1015.2h-.76l-.78-3.35c0-.18-.12-.56-.14-.69,0,.13-.1.51-.14.69l-.82,3.35h-.74l-1-5.19h.76l.59,3.28c0,.15.1.51.12.68,0-.17.1-.52.14-.68l.8-3.28h.64l.82,3.36c0,.14.09.41.12.6,0-.2.07-.48.1-.61l.6-3.35h.73Z" transform="translate(2 2)"/><path d="M1008.11,1015.2l-.42-1.23h-2l-.42,1.23h-.78l1.8-5.19h.8l1.82,5.19Zm-1.05-3.12c-.12-.37-.32-1-.38-1.19-.06.22-.24.81-.37,1.2l-.39,1.18h1.54Z" transform="translate(2 2)"/><path d="M1011.3,1013.15v2.05h-.75v-2.05l-1.8-3.14h.88l.78,1.43c.17.32.43.84.52,1,.08-.19.33-.69.51-1l.79-1.44h.86Z" transform="translate(2 2)"/><path d="M928.9,1048.4v-30H946c3.85,0,6.84.82,8.9,2.36h0a7.94,7.94,0,0,1,3.14,6.63h0a8,8,0,0,1-3.1,6.62h0c-2,1.55-5,2.38-8.79,2.38H934.6v12Zm15.35-15.94h.18c2.76,0,4.75-.48,6-1.35h0a4.21,4.21,0,0,0,1.85-3.74h0a4.19,4.19,0,0,0-1.89-3.75h0c-1.29-.86-3.32-1.33-6.15-1.33H934.6v10.17Zm16.23,15.94v-30h5.7v26.1h20.24v3.92Zm50.88-30,7.33,23.93,8.39-23.93h6l8.28,23.94,7.6-23.94h5.75l-10.37,29.81-.07.21h-5.74l-8.56-24.24-8.67,24.24h-5.74l-8.7-26.11H995.13v26.11h-5.7v-26.11H976.69v-3.91Z" transform="translate(2 2)"/><path d="M898.12,1026.06a1.22,1.22,0,0,1-.25-1.54,1.24,1.24,0,0,1,1.46-.51l1.4.41a7.53,7.53,0,0,0,.42-2.8l-1.45,0a1.2,1.2,0,0,1-.59-2.3l1.28-.71a7.48,7.48,0,0,0-1.69-2.27l-1,1a1.24,1.24,0,0,1-1.54.26,1.26,1.26,0,0,1-.51-1.47l.41-1.4a7.58,7.58,0,0,0-2.81-.42v1.46a1.2,1.2,0,0,1-2.3.58l-.71-1.28a7.51,7.51,0,0,0-2.27,1.7l1,1a1.21,1.21,0,0,1-1.21,2.05l-1.4-.41a7.58,7.58,0,0,0-.42,2.81h1.46a1.2,1.2,0,0,1,.58,2.3l-1.28.71a7.4,7.4,0,0,0,1.7,2.28l1-1a1.21,1.21,0,0,1,2.05,1.21l-.41,1.41a7.79,7.79,0,0,0,2.81.41v-1.45a1.2,1.2,0,0,1,2.3-.59l.71,1.28a7.53,7.53,0,0,0,2.28-1.69Zm-3.83-1.12a3.11,3.11,0,1,1,2.25-3.77A3.11,3.11,0,0,1,894.29,1024.94Z" transform="translate(2 2)"/><circle cx="918.59" cy="1031.77" r="1.99"/><polygon class="cls-7" points="761.06 39.22 772.36 50.52 652.09 50.52 640.79 39.22 761.06 39.22"/><polygon class="cls-7" points="789.34 39.22 1141.08 39.22 1129.78 50.52 800.64 50.52 789.34 39.22"/><polygon class="cls-7" points="1289.63 39.22 1278.33 50.52 1158.06 50.52 1169.36 39.22 1289.63 39.22"/><circle class="cls-8" cx="1895.67" cy="132.86" r="6.3"/><circle class="cls-8" cx="1895.67" cy="377.72" r="6.3"/><path class="cls-9" d="M1884.14,394.39l-47.84-47.83V162.7l48-49.4h25.43c.54,101,1.16,234.17,1.17,281.09Z" transform="translate(2 2)"/><circle class="cls-8" cx="1895.67" cy="707.09" r="6.3"/><circle class="cls-8" cx="1895.67" cy="951.95" r="6.3"/><path class="cls-9" d="M1884.14,966.2l-47.84-47.84V734.51l48-49.4h25.43c.54,101,1.16,234.16,1.17,281.09Z" transform="translate(2 2)"/><circle class="cls-8" cx="31.16" cy="134.17" r="6.3"/><circle class="cls-8" cx="31.16" cy="379.03" r="6.3"/><circle class="cls-8" cx="31.16" cy="705.26" r="6.3"/><circle class="cls-8" cx="31.16" cy="950.12" r="6.3"/><path class="cls-9" d="M39,394.39l47.84-47.83V162.7l-48-49.4H13.43c-.54,101-1.16,234.17-1.17,281.09Z" transform="translate(2 2)"/><path class="cls-9" d="M39,966.2l47.84-47.84V734.51l-48-49.4H13.43c-.54,101-1.16,234.16-1.17,281.09Z" transform="translate(2 2)"/></g></g></svg>